<mxfile host="Electron" modified="2023-12-25T14:08:05.670Z" agent="Mozilla/5.0 (Windows NT 10.0; Win64; x64) AppleWebKit/537.36 (KHTML, like Gecko) draw.io/22.1.2 Chrome/114.0.5735.289 Electron/25.9.4 Safari/537.36" etag="JCLjFNIy6UzWT2SgH4u4" version="22.1.2" type="device">
  <diagram name="Page-1" id="HdgVnPu09ANzsE-JqD5W">
    <mxGraphModel dx="1418" dy="867" grid="1" gridSize="10" guides="1" tooltips="1" connect="1" arrows="1" fold="1" page="1" pageScale="1" pageWidth="583" pageHeight="827" math="0" shadow="0">
      <root>
        <mxCell id="0" />
        <mxCell id="1" parent="0" />
        <mxCell id="2Ioa0xMzXCw3uDVHmsE9-3" value="Système de traitement des ventes aux clients" style="swimlane;whiteSpace=wrap;html=1;" parent="1" vertex="1">
          <mxGeometry x="137" y="27" width="380" height="773" as="geometry" />
        </mxCell>
        <mxCell id="2Ioa0xMzXCw3uDVHmsE9-17" value="Enregistrer&lt;br&gt;une vente&lt;br&gt;au stand" style="ellipse;whiteSpace=wrap;html=1;" parent="2Ioa0xMzXCw3uDVHmsE9-3" vertex="1">
          <mxGeometry x="40" y="393" width="80" height="50" as="geometry" />
        </mxCell>
        <mxCell id="2Ioa0xMzXCw3uDVHmsE9-39" value="" style="endArrow=open;dashed=1;html=1;rounded=0;endFill=0;exitX=1;exitY=0;exitDx=0;exitDy=0;entryX=0;entryY=0.5;entryDx=0;entryDy=0;" parent="2Ioa0xMzXCw3uDVHmsE9-3" source="2Ioa0xMzXCw3uDVHmsE9-17" target="2Ioa0xMzXCw3uDVHmsE9-40" edge="1">
          <mxGeometry width="50" height="50" relative="1" as="geometry">
            <mxPoint x="350" y="368" as="sourcePoint" />
            <mxPoint x="160" y="368" as="targetPoint" />
          </mxGeometry>
        </mxCell>
        <mxCell id="2Ioa0xMzXCw3uDVHmsE9-40" value="Scanner code&lt;br&gt;du chariot" style="ellipse;whiteSpace=wrap;html=1;" parent="2Ioa0xMzXCw3uDVHmsE9-3" vertex="1">
          <mxGeometry x="260" y="328" width="80" height="50" as="geometry" />
        </mxCell>
        <mxCell id="2Ioa0xMzXCw3uDVHmsE9-42" value="Scanner carte&lt;br&gt;individuelle" style="ellipse;whiteSpace=wrap;html=1;" parent="2Ioa0xMzXCw3uDVHmsE9-3" vertex="1">
          <mxGeometry x="250" y="393" width="80" height="50" as="geometry" />
        </mxCell>
        <mxCell id="2Ioa0xMzXCw3uDVHmsE9-43" value="Scanner &lt;strike style=&quot;color: rgb(255, 0, 0);&quot;&gt;le/les code des&lt;/strike&gt; article&lt;font color=&quot;#ff0000&quot;&gt;&lt;strike&gt;s&lt;/strike&gt;&lt;/font&gt;" style="ellipse;whiteSpace=wrap;html=1;" parent="2Ioa0xMzXCw3uDVHmsE9-3" vertex="1">
          <mxGeometry x="240" y="443" width="100" height="50" as="geometry" />
        </mxCell>
        <mxCell id="2Ioa0xMzXCw3uDVHmsE9-44" value="" style="endArrow=open;dashed=1;html=1;rounded=0;endFill=0;exitX=1;exitY=1;exitDx=0;exitDy=0;entryX=0;entryY=0.5;entryDx=0;entryDy=0;" parent="2Ioa0xMzXCw3uDVHmsE9-3" source="2Ioa0xMzXCw3uDVHmsE9-17" target="2Ioa0xMzXCw3uDVHmsE9-43" edge="1">
          <mxGeometry width="50" height="50" relative="1" as="geometry">
            <mxPoint x="130" y="428" as="sourcePoint" />
            <mxPoint x="190" y="428" as="targetPoint" />
          </mxGeometry>
        </mxCell>
        <mxCell id="2Ioa0xMzXCw3uDVHmsE9-41" value="" style="endArrow=open;dashed=1;html=1;rounded=0;endFill=0;exitX=1;exitY=0.5;exitDx=0;exitDy=0;entryX=0;entryY=0.5;entryDx=0;entryDy=0;" parent="2Ioa0xMzXCw3uDVHmsE9-3" source="2Ioa0xMzXCw3uDVHmsE9-17" target="2Ioa0xMzXCw3uDVHmsE9-42" edge="1">
          <mxGeometry width="50" height="50" relative="1" as="geometry">
            <mxPoint x="140" y="418" as="sourcePoint" />
            <mxPoint x="150" y="418" as="targetPoint" />
          </mxGeometry>
        </mxCell>
        <mxCell id="2Ioa0xMzXCw3uDVHmsE9-47" value="Cloturer la&lt;br&gt;vente" style="ellipse;whiteSpace=wrap;html=1;" parent="2Ioa0xMzXCw3uDVHmsE9-3" vertex="1">
          <mxGeometry x="50" y="248" width="80" height="50" as="geometry" />
        </mxCell>
        <mxCell id="2Ioa0xMzXCw3uDVHmsE9-49" value="&amp;lt;&amp;lt;include&amp;gt;&amp;gt;" style="text;html=1;align=center;verticalAlign=middle;resizable=0;points=[];autosize=1;strokeColor=none;fillColor=none;" parent="2Ioa0xMzXCw3uDVHmsE9-3" vertex="1">
          <mxGeometry x="130" y="358" width="90" height="30" as="geometry" />
        </mxCell>
        <mxCell id="2Ioa0xMzXCw3uDVHmsE9-50" value="&amp;lt;&amp;lt;include&amp;gt;&amp;gt;" style="text;html=1;align=center;verticalAlign=middle;resizable=0;points=[];autosize=1;strokeColor=none;fillColor=none;" parent="2Ioa0xMzXCw3uDVHmsE9-3" vertex="1">
          <mxGeometry x="155" y="393" width="90" height="30" as="geometry" />
        </mxCell>
        <mxCell id="2Ioa0xMzXCw3uDVHmsE9-51" value="&amp;lt;&amp;lt;include&amp;gt;&amp;gt;" style="text;html=1;align=center;verticalAlign=middle;resizable=0;points=[];autosize=1;strokeColor=none;fillColor=none;" parent="2Ioa0xMzXCw3uDVHmsE9-3" vertex="1">
          <mxGeometry x="140" y="453" width="90" height="30" as="geometry" />
        </mxCell>
        <mxCell id="2Ioa0xMzXCw3uDVHmsE9-52" value="&amp;lt;&amp;lt;include&amp;gt;&amp;gt;" style="text;html=1;align=center;verticalAlign=middle;resizable=0;points=[];autosize=1;strokeColor=none;fillColor=none;" parent="2Ioa0xMzXCw3uDVHmsE9-3" vertex="1">
          <mxGeometry x="150" y="308" width="90" height="30" as="geometry" />
        </mxCell>
        <mxCell id="2Ioa0xMzXCw3uDVHmsE9-53" value="" style="endArrow=open;dashed=1;html=1;rounded=0;endFill=0;exitX=1;exitY=1;exitDx=0;exitDy=0;entryX=0;entryY=0;entryDx=0;entryDy=0;" parent="2Ioa0xMzXCw3uDVHmsE9-3" source="2Ioa0xMzXCw3uDVHmsE9-47" target="2Ioa0xMzXCw3uDVHmsE9-40" edge="1">
          <mxGeometry width="50" height="50" relative="1" as="geometry">
            <mxPoint x="118" y="410" as="sourcePoint" />
            <mxPoint x="170" y="363" as="targetPoint" />
          </mxGeometry>
        </mxCell>
        <mxCell id="2Ioa0xMzXCw3uDVHmsE9-54" value="&lt;font color=&quot;#00cc00&quot;&gt;Suspendre&lt;br&gt;la vente&lt;/font&gt;" style="ellipse;whiteSpace=wrap;html=1;fillColor=#d5e8d4;strokeColor=#82b366;" parent="2Ioa0xMzXCw3uDVHmsE9-3" vertex="1">
          <mxGeometry x="260" y="208" width="80" height="50" as="geometry" />
        </mxCell>
        <mxCell id="2Ioa0xMzXCw3uDVHmsE9-55" value="" style="endArrow=open;dashed=1;html=1;rounded=0;endFill=0;exitX=0;exitY=0.5;exitDx=0;exitDy=0;entryX=1;entryY=0.5;entryDx=0;entryDy=0;strokeColor=#00CC00;" parent="2Ioa0xMzXCw3uDVHmsE9-3" source="2Ioa0xMzXCw3uDVHmsE9-54" target="2Ioa0xMzXCw3uDVHmsE9-47" edge="1">
          <mxGeometry width="50" height="50" relative="1" as="geometry">
            <mxPoint x="182" y="345" as="sourcePoint" />
            <mxPoint x="128" y="301" as="targetPoint" />
          </mxGeometry>
        </mxCell>
        <mxCell id="2Ioa0xMzXCw3uDVHmsE9-58" value="&lt;font color=&quot;#00cc00&quot;&gt;&amp;lt;&amp;lt;extend&amp;gt;&amp;gt;&lt;/font&gt;" style="text;html=1;align=center;verticalAlign=middle;resizable=0;points=[];autosize=1;strokeColor=none;fillColor=none;" parent="2Ioa0xMzXCw3uDVHmsE9-3" vertex="1">
          <mxGeometry x="170" y="213" width="90" height="30" as="geometry" />
        </mxCell>
        <mxCell id="2Ioa0xMzXCw3uDVHmsE9-59" value="Vérifier le&lt;br&gt;contenu du&lt;br&gt;chariot" style="ellipse;whiteSpace=wrap;html=1;" parent="2Ioa0xMzXCw3uDVHmsE9-3" vertex="1">
          <mxGeometry x="280" y="268" width="80" height="50" as="geometry" />
        </mxCell>
        <mxCell id="2Ioa0xMzXCw3uDVHmsE9-60" value="&amp;lt;&amp;lt;include&amp;gt;&amp;gt;" style="text;html=1;align=center;verticalAlign=middle;resizable=0;points=[];autosize=1;strokeColor=none;fillColor=none;" parent="2Ioa0xMzXCw3uDVHmsE9-3" vertex="1">
          <mxGeometry x="170" y="268" width="90" height="30" as="geometry" />
        </mxCell>
        <mxCell id="2Ioa0xMzXCw3uDVHmsE9-61" value="" style="endArrow=open;dashed=1;html=1;rounded=0;endFill=0;exitX=0.989;exitY=0.731;exitDx=0;exitDy=0;entryX=0;entryY=0.5;entryDx=0;entryDy=0;exitPerimeter=0;" parent="2Ioa0xMzXCw3uDVHmsE9-3" source="2Ioa0xMzXCw3uDVHmsE9-47" target="2Ioa0xMzXCw3uDVHmsE9-59" edge="1">
          <mxGeometry width="50" height="50" relative="1" as="geometry">
            <mxPoint x="140" y="283" as="sourcePoint" />
            <mxPoint x="210" y="243" as="targetPoint" />
          </mxGeometry>
        </mxCell>
        <mxCell id="2Ioa0xMzXCw3uDVHmsE9-66" style="edgeStyle=orthogonalEdgeStyle;rounded=0;orthogonalLoop=1;jettySize=auto;html=1;exitX=0.5;exitY=1;exitDx=0;exitDy=0;" parent="2Ioa0xMzXCw3uDVHmsE9-3" source="2Ioa0xMzXCw3uDVHmsE9-59" target="2Ioa0xMzXCw3uDVHmsE9-59" edge="1">
          <mxGeometry relative="1" as="geometry" />
        </mxCell>
        <mxCell id="2Ioa0xMzXCw3uDVHmsE9-68" value="Ajouter, supprimer&lt;br&gt;caissier" style="ellipse;whiteSpace=wrap;html=1;" parent="2Ioa0xMzXCw3uDVHmsE9-3" vertex="1">
          <mxGeometry x="103" y="573" width="80" height="60" as="geometry" />
        </mxCell>
        <mxCell id="2Ioa0xMzXCw3uDVHmsE9-30" value="Creer, &lt;br&gt;supprimer, modifier &lt;br&gt;un article" style="ellipse;whiteSpace=wrap;html=1;" parent="2Ioa0xMzXCw3uDVHmsE9-3" vertex="1">
          <mxGeometry x="10" y="533" width="110" height="60" as="geometry" />
        </mxCell>
        <mxCell id="2Ioa0xMzXCw3uDVHmsE9-69" value="Ajouter,&lt;br&gt;supprimer&lt;br&gt;vendeur" style="ellipse;whiteSpace=wrap;html=1;" parent="2Ioa0xMzXCw3uDVHmsE9-3" vertex="1">
          <mxGeometry x="140" y="633" width="80" height="60" as="geometry" />
        </mxCell>
        <mxCell id="2Ioa0xMzXCw3uDVHmsE9-71" value="Consulter&lt;br&gt;avertissements" style="ellipse;whiteSpace=wrap;html=1;" parent="2Ioa0xMzXCw3uDVHmsE9-3" vertex="1">
          <mxGeometry x="20" y="713" width="100" height="60" as="geometry" />
        </mxCell>
        <mxCell id="2Ioa0xMzXCw3uDVHmsE9-72" value="Annuler&lt;br&gt;une vente" style="ellipse;whiteSpace=wrap;html=1;" parent="2Ioa0xMzXCw3uDVHmsE9-3" vertex="1">
          <mxGeometry x="120" y="693" width="80" height="60" as="geometry" />
        </mxCell>
        <mxCell id="2Ioa0xMzXCw3uDVHmsE9-75" value="Consulter articles du&lt;br&gt;magasin" style="ellipse;whiteSpace=wrap;html=1;" parent="2Ioa0xMzXCw3uDVHmsE9-3" vertex="1">
          <mxGeometry x="30" y="468" width="90" height="50" as="geometry" />
        </mxCell>
        <mxCell id="2Ioa0xMzXCw3uDVHmsE9-105" value="&lt;font color=&quot;#00cc00&quot;&gt;Enregistrer&lt;br&gt;vente&lt;br&gt;abandonnée&lt;/font&gt;" style="ellipse;whiteSpace=wrap;html=1;fillColor=#d5e8d4;strokeColor=#82b366;" parent="2Ioa0xMzXCw3uDVHmsE9-3" vertex="1">
          <mxGeometry x="30" y="318" width="100" height="60" as="geometry" />
        </mxCell>
        <mxCell id="2Ioa0xMzXCw3uDVHmsE9-109" value="Enregistrer&lt;br&gt;un avertissement" style="ellipse;whiteSpace=wrap;html=1;" parent="2Ioa0xMzXCw3uDVHmsE9-3" vertex="1">
          <mxGeometry x="55" y="163" width="100" height="50" as="geometry" />
        </mxCell>
        <mxCell id="2Ioa0xMzXCw3uDVHmsE9-29" value="" style="endArrow=block;html=1;rounded=0;endFill=0;" parent="2Ioa0xMzXCw3uDVHmsE9-3" edge="1">
          <mxGeometry width="50" height="50" relative="1" as="geometry">
            <mxPoint x="-55" y="623" as="sourcePoint" />
            <mxPoint x="-55" y="493" as="targetPoint" />
          </mxGeometry>
        </mxCell>
        <mxCell id="2Ioa0xMzXCw3uDVHmsE9-37" value="" style="endArrow=block;html=1;rounded=0;endFill=0;" parent="2Ioa0xMzXCw3uDVHmsE9-3" edge="1">
          <mxGeometry width="50" height="50" relative="1" as="geometry">
            <mxPoint x="-67" y="633" as="sourcePoint" />
            <mxPoint x="-67" y="283" as="targetPoint" />
            <Array as="points">
              <mxPoint x="-100" y="433" />
            </Array>
          </mxGeometry>
        </mxCell>
        <mxCell id="2Ioa0xMzXCw3uDVHmsE9-45" value="Payer ses&lt;br&gt;achats" style="ellipse;whiteSpace=wrap;html=1;" parent="2Ioa0xMzXCw3uDVHmsE9-3" vertex="1">
          <mxGeometry x="50" y="33" width="80" height="50" as="geometry" />
        </mxCell>
        <mxCell id="2Ioa0xMzXCw3uDVHmsE9-63" value="Prendre un&lt;br&gt;chariot" style="ellipse;whiteSpace=wrap;html=1;" parent="2Ioa0xMzXCw3uDVHmsE9-3" vertex="1">
          <mxGeometry x="75" y="83" width="80" height="50" as="geometry" />
        </mxCell>
        <mxCell id="qIeu8jZyU2JCkB1Wr_dZ-52" value="Payer par&amp;nbsp;&lt;br&gt;carte bancaire" style="ellipse;whiteSpace=wrap;html=1;fillColor=#f8cecc;strokeColor=#b85450;fontColor=#FF0000;" parent="2Ioa0xMzXCw3uDVHmsE9-3" vertex="1">
          <mxGeometry x="255" y="23" width="90" height="50" as="geometry" />
        </mxCell>
        <mxCell id="qIeu8jZyU2JCkB1Wr_dZ-53" value="Demander une&lt;br&gt;facture" style="ellipse;whiteSpace=wrap;html=1;fillColor=#f8cecc;strokeColor=#b85450;fontColor=#FF0000;" parent="2Ioa0xMzXCw3uDVHmsE9-3" vertex="1">
          <mxGeometry x="235" y="83" width="90" height="50" as="geometry" />
        </mxCell>
        <mxCell id="qIeu8jZyU2JCkB1Wr_dZ-54" value="" style="endArrow=open;dashed=1;html=1;rounded=0;endFill=0;exitX=0;exitY=0.5;exitDx=0;exitDy=0;entryX=1;entryY=1;entryDx=0;entryDy=0;strokeColor=#FF0000;" parent="2Ioa0xMzXCw3uDVHmsE9-3" source="qIeu8jZyU2JCkB1Wr_dZ-53" target="2Ioa0xMzXCw3uDVHmsE9-45" edge="1">
          <mxGeometry width="50" height="50" relative="1" as="geometry">
            <mxPoint x="139" y="295" as="sourcePoint" />
            <mxPoint x="290" y="303" as="targetPoint" />
          </mxGeometry>
        </mxCell>
        <mxCell id="qIeu8jZyU2JCkB1Wr_dZ-62" value="&lt;font color=&quot;#ff0000&quot; style=&quot;font-size: 16px;&quot;&gt;X&lt;/font&gt;" style="edgeLabel;html=1;align=center;verticalAlign=middle;resizable=0;points=[];" parent="qIeu8jZyU2JCkB1Wr_dZ-54" vertex="1" connectable="0">
          <mxGeometry x="-0.1296" y="2" relative="1" as="geometry">
            <mxPoint as="offset" />
          </mxGeometry>
        </mxCell>
        <mxCell id="qIeu8jZyU2JCkB1Wr_dZ-55" value="" style="endArrow=open;dashed=1;html=1;rounded=0;endFill=0;exitX=0;exitY=0.5;exitDx=0;exitDy=0;entryX=1;entryY=0.5;entryDx=0;entryDy=0;strokeColor=#FF0000;" parent="2Ioa0xMzXCw3uDVHmsE9-3" source="qIeu8jZyU2JCkB1Wr_dZ-52" target="2Ioa0xMzXCw3uDVHmsE9-45" edge="1">
          <mxGeometry width="50" height="50" relative="1" as="geometry">
            <mxPoint x="193" y="148" as="sourcePoint" />
            <mxPoint x="140" y="68" as="targetPoint" />
          </mxGeometry>
        </mxCell>
        <mxCell id="qIeu8jZyU2JCkB1Wr_dZ-61" value="&lt;font color=&quot;#ff0000&quot; style=&quot;font-size: 16px;&quot;&gt;X&lt;/font&gt;" style="edgeLabel;html=1;align=center;verticalAlign=middle;resizable=0;points=[];" parent="qIeu8jZyU2JCkB1Wr_dZ-55" vertex="1" connectable="0">
          <mxGeometry x="-0.0286" y="-3" relative="1" as="geometry">
            <mxPoint as="offset" />
          </mxGeometry>
        </mxCell>
        <mxCell id="qIeu8jZyU2JCkB1Wr_dZ-56" value="&lt;font color=&quot;#ff0000&quot;&gt;&amp;lt;&amp;lt;extend&amp;gt;&amp;gt;&lt;/font&gt;" style="text;html=1;align=center;verticalAlign=middle;resizable=0;points=[];autosize=1;strokeColor=none;fillColor=none;" parent="2Ioa0xMzXCw3uDVHmsE9-3" vertex="1">
          <mxGeometry x="145" y="23" width="90" height="30" as="geometry" />
        </mxCell>
        <mxCell id="qIeu8jZyU2JCkB1Wr_dZ-57" value="&lt;font color=&quot;#ff0000&quot;&gt;&amp;lt;&amp;lt;extend&amp;gt;&amp;gt;&lt;/font&gt;" style="text;html=1;align=center;verticalAlign=middle;resizable=0;points=[];autosize=1;strokeColor=none;fillColor=none;" parent="2Ioa0xMzXCw3uDVHmsE9-3" vertex="1">
          <mxGeometry x="165" y="63" width="90" height="30" as="geometry" />
        </mxCell>
        <mxCell id="qIeu8jZyU2JCkB1Wr_dZ-65" value="&lt;font color=&quot;#ff0000&quot;&gt;Abandonner&lt;br&gt;chariot&lt;/font&gt;" style="ellipse;whiteSpace=wrap;html=1;fillColor=#f8cecc;strokeColor=#b85450;" parent="2Ioa0xMzXCw3uDVHmsE9-3" vertex="1">
          <mxGeometry x="10" y="123" width="80" height="50" as="geometry" />
        </mxCell>
        <mxCell id="qIeu8jZyU2JCkB1Wr_dZ-68" value="" style="endArrow=open;dashed=1;html=1;rounded=0;endFill=0;exitX=0.5;exitY=1;exitDx=0;exitDy=0;entryX=0.5;entryY=0;entryDx=0;entryDy=0;strokeColor=#FF0000;" parent="2Ioa0xMzXCw3uDVHmsE9-3" source="2Ioa0xMzXCw3uDVHmsE9-109" target="2Ioa0xMzXCw3uDVHmsE9-47" edge="1">
          <mxGeometry width="50" height="50" relative="1" as="geometry">
            <mxPoint x="270" y="243" as="sourcePoint" />
            <mxPoint x="140" y="283" as="targetPoint" />
          </mxGeometry>
        </mxCell>
        <mxCell id="qIeu8jZyU2JCkB1Wr_dZ-72" value="&lt;font color=&quot;#ff0000&quot; style=&quot;font-size: 16px;&quot;&gt;X&lt;/font&gt;" style="edgeLabel;html=1;align=center;verticalAlign=middle;resizable=0;points=[];" parent="qIeu8jZyU2JCkB1Wr_dZ-68" vertex="1" connectable="0">
          <mxGeometry x="-0.0283" relative="1" as="geometry">
            <mxPoint as="offset" />
          </mxGeometry>
        </mxCell>
        <mxCell id="qIeu8jZyU2JCkB1Wr_dZ-70" value="&lt;font color=&quot;#ff0000&quot;&gt;&amp;lt;&amp;lt;extend&amp;gt;&amp;gt;&lt;/font&gt;" style="text;html=1;align=center;verticalAlign=middle;resizable=0;points=[];autosize=1;strokeColor=none;fillColor=none;" parent="2Ioa0xMzXCw3uDVHmsE9-3" vertex="1">
          <mxGeometry x="20" y="208" width="90" height="30" as="geometry" />
        </mxCell>
        <mxCell id="2Ioa0xMzXCw3uDVHmsE9-38" value="Client" style="shape=umlActor;verticalLabelPosition=bottom;verticalAlign=top;html=1;outlineConnect=0;" parent="1" vertex="1">
          <mxGeometry x="67" y="65" width="30" height="60" as="geometry" />
        </mxCell>
        <mxCell id="2Ioa0xMzXCw3uDVHmsE9-46" value="" style="endArrow=none;html=1;rounded=0;exitX=1;exitY=0.3333333333333333;exitDx=0;exitDy=0;exitPerimeter=0;entryX=0;entryY=0.5;entryDx=0;entryDy=0;" parent="1" source="2Ioa0xMzXCw3uDVHmsE9-38" target="2Ioa0xMzXCw3uDVHmsE9-45" edge="1">
          <mxGeometry width="50" height="50" relative="1" as="geometry">
            <mxPoint x="67" y="500" as="sourcePoint" />
            <mxPoint x="187" y="500" as="targetPoint" />
          </mxGeometry>
        </mxCell>
        <mxCell id="2Ioa0xMzXCw3uDVHmsE9-64" value="" style="endArrow=none;html=1;rounded=0;entryX=0;entryY=0.5;entryDx=0;entryDy=0;exitX=1;exitY=0.3333333333333333;exitDx=0;exitDy=0;exitPerimeter=0;" parent="1" source="2Ioa0xMzXCw3uDVHmsE9-38" target="2Ioa0xMzXCw3uDVHmsE9-63" edge="1">
          <mxGeometry width="50" height="50" relative="1" as="geometry">
            <mxPoint x="77" y="70" as="sourcePoint" />
            <mxPoint x="197" y="60" as="targetPoint" />
          </mxGeometry>
        </mxCell>
        <mxCell id="2Ioa0xMzXCw3uDVHmsE9-12" value="Caissier" style="shape=umlActor;verticalLabelPosition=bottom;verticalAlign=top;html=1;outlineConnect=0;" parent="1" vertex="1">
          <mxGeometry x="67" y="225" width="30" height="60" as="geometry" />
        </mxCell>
        <mxCell id="2Ioa0xMzXCw3uDVHmsE9-48" value="" style="endArrow=none;html=1;rounded=0;exitX=1;exitY=0.3333333333333333;exitDx=0;exitDy=0;exitPerimeter=0;entryX=0;entryY=0.5;entryDx=0;entryDy=0;" parent="1" source="2Ioa0xMzXCw3uDVHmsE9-12" target="2Ioa0xMzXCw3uDVHmsE9-47" edge="1">
          <mxGeometry width="50" height="50" relative="1" as="geometry">
            <mxPoint x="67" y="15" as="sourcePoint" />
            <mxPoint x="197" y="15" as="targetPoint" />
          </mxGeometry>
        </mxCell>
        <mxCell id="2Ioa0xMzXCw3uDVHmsE9-107" value="" style="endArrow=none;html=1;rounded=0;exitX=1;exitY=0.3333333333333333;exitDx=0;exitDy=0;exitPerimeter=0;entryX=0;entryY=0;entryDx=0;entryDy=0;strokeColor=#00CC00;" parent="1" source="2Ioa0xMzXCw3uDVHmsE9-12" target="2Ioa0xMzXCw3uDVHmsE9-105" edge="1">
          <mxGeometry width="50" height="50" relative="1" as="geometry">
            <mxPoint x="67" y="455" as="sourcePoint" />
            <mxPoint x="187" y="455" as="targetPoint" />
          </mxGeometry>
        </mxCell>
        <mxCell id="2Ioa0xMzXCw3uDVHmsE9-110" value="" style="endArrow=none;html=1;rounded=0;exitX=1;exitY=0.3333333333333333;exitDx=0;exitDy=0;exitPerimeter=0;entryX=0;entryY=0.5;entryDx=0;entryDy=0;fontColor=default;labelBackgroundColor=none;strokeColor=#00CC00;" parent="1" source="2Ioa0xMzXCw3uDVHmsE9-12" target="2Ioa0xMzXCw3uDVHmsE9-109" edge="1">
          <mxGeometry width="50" height="50" relative="1" as="geometry">
            <mxPoint x="67" y="255" as="sourcePoint" />
            <mxPoint x="197" y="310" as="targetPoint" />
          </mxGeometry>
        </mxCell>
        <mxCell id="2Ioa0xMzXCw3uDVHmsE9-15" value="Vendeur" style="shape=umlActor;verticalLabelPosition=bottom;verticalAlign=top;html=1;outlineConnect=0;" parent="1" vertex="1">
          <mxGeometry x="67" y="424" width="30" height="60" as="geometry" />
        </mxCell>
        <mxCell id="2Ioa0xMzXCw3uDVHmsE9-16" value="" style="endArrow=none;html=1;rounded=0;exitX=1;exitY=0.3333333333333333;exitDx=0;exitDy=0;exitPerimeter=0;entryX=0;entryY=0.5;entryDx=0;entryDy=0;" parent="1" source="2Ioa0xMzXCw3uDVHmsE9-15" target="2Ioa0xMzXCw3uDVHmsE9-17" edge="1">
          <mxGeometry width="50" height="50" relative="1" as="geometry">
            <mxPoint x="67" y="190" as="sourcePoint" />
            <mxPoint x="177" y="445" as="targetPoint" />
          </mxGeometry>
        </mxCell>
        <mxCell id="2Ioa0xMzXCw3uDVHmsE9-74" value="" style="endArrow=none;html=1;rounded=0;exitX=1;exitY=0.3333333333333333;exitDx=0;exitDy=0;exitPerimeter=0;entryX=0;entryY=0;entryDx=0;entryDy=0;" parent="1" source="2Ioa0xMzXCw3uDVHmsE9-15" target="2Ioa0xMzXCw3uDVHmsE9-75" edge="1">
          <mxGeometry width="50" height="50" relative="1" as="geometry">
            <mxPoint x="67" y="455" as="sourcePoint" />
            <mxPoint x="167" y="495" as="targetPoint" />
          </mxGeometry>
        </mxCell>
        <mxCell id="2Ioa0xMzXCw3uDVHmsE9-108" value="" style="endArrow=none;html=1;rounded=0;entryX=0;entryY=1;entryDx=0;entryDy=0;exitX=1;exitY=0.3333333333333333;exitDx=0;exitDy=0;exitPerimeter=0;strokeColor=#00CC00;" parent="1" source="2Ioa0xMzXCw3uDVHmsE9-15" target="2Ioa0xMzXCw3uDVHmsE9-105" edge="1">
          <mxGeometry width="50" height="50" relative="1" as="geometry">
            <mxPoint x="77" y="425" as="sourcePoint" />
            <mxPoint x="192" y="364" as="targetPoint" />
          </mxGeometry>
        </mxCell>
        <mxCell id="2Ioa0xMzXCw3uDVHmsE9-33" value="Menuisier" style="shape=umlActor;verticalLabelPosition=bottom;verticalAlign=top;html=1;outlineConnect=0;" parent="1" vertex="1">
          <mxGeometry x="67" y="670" width="30" height="60" as="geometry" />
        </mxCell>
        <mxCell id="2Ioa0xMzXCw3uDVHmsE9-34" value="" style="endArrow=none;html=1;rounded=0;exitX=1;exitY=0.3333333333333333;exitDx=0;exitDy=0;exitPerimeter=0;entryX=0;entryY=1;entryDx=0;entryDy=0;" parent="1" source="2Ioa0xMzXCw3uDVHmsE9-33" target="2Ioa0xMzXCw3uDVHmsE9-30" edge="1">
          <mxGeometry width="50" height="50" relative="1" as="geometry">
            <mxPoint x="107" y="605" as="sourcePoint" />
            <mxPoint x="157" y="555" as="targetPoint" />
          </mxGeometry>
        </mxCell>
        <mxCell id="2Ioa0xMzXCw3uDVHmsE9-35" value="" style="endArrow=none;html=1;rounded=0;exitX=1;exitY=0.3333333333333333;exitDx=0;exitDy=0;exitPerimeter=0;entryX=0;entryY=0.5;entryDx=0;entryDy=0;" parent="1" source="2Ioa0xMzXCw3uDVHmsE9-33" target="2Ioa0xMzXCw3uDVHmsE9-68" edge="1">
          <mxGeometry width="50" height="50" relative="1" as="geometry">
            <mxPoint x="67" y="595" as="sourcePoint" />
            <mxPoint x="206.99999999999977" y="640" as="targetPoint" />
          </mxGeometry>
        </mxCell>
        <mxCell id="2Ioa0xMzXCw3uDVHmsE9-36" value="" style="endArrow=none;html=1;rounded=0;exitX=1;exitY=0.3333333333333333;exitDx=0;exitDy=0;exitPerimeter=0;entryX=0;entryY=0;entryDx=0;entryDy=0;" parent="1" source="2Ioa0xMzXCw3uDVHmsE9-33" target="2Ioa0xMzXCw3uDVHmsE9-71" edge="1">
          <mxGeometry width="50" height="50" relative="1" as="geometry">
            <mxPoint x="67" y="650" as="sourcePoint" />
            <mxPoint x="206.99999999999977" y="700" as="targetPoint" />
          </mxGeometry>
        </mxCell>
        <mxCell id="2Ioa0xMzXCw3uDVHmsE9-70" value="" style="endArrow=none;html=1;rounded=0;exitX=1;exitY=0.3333333333333333;exitDx=0;exitDy=0;exitPerimeter=0;entryX=0;entryY=0.5;entryDx=0;entryDy=0;" parent="1" source="2Ioa0xMzXCw3uDVHmsE9-33" target="2Ioa0xMzXCw3uDVHmsE9-69" edge="1">
          <mxGeometry width="50" height="50" relative="1" as="geometry">
            <mxPoint x="67" y="650" as="sourcePoint" />
            <mxPoint x="277" y="665" as="targetPoint" />
          </mxGeometry>
        </mxCell>
        <mxCell id="2Ioa0xMzXCw3uDVHmsE9-73" value="" style="endArrow=none;html=1;rounded=0;exitX=1;exitY=0.3333333333333333;exitDx=0;exitDy=0;exitPerimeter=0;entryX=0;entryY=0;entryDx=0;entryDy=0;" parent="1" source="2Ioa0xMzXCw3uDVHmsE9-33" target="2Ioa0xMzXCw3uDVHmsE9-72" edge="1">
          <mxGeometry width="50" height="50" relative="1" as="geometry">
            <mxPoint x="67" y="650" as="sourcePoint" />
            <mxPoint x="182" y="744" as="targetPoint" />
          </mxGeometry>
        </mxCell>
        <mxCell id="qIeu8jZyU2JCkB1Wr_dZ-66" value="" style="endArrow=none;html=1;rounded=0;entryX=0;entryY=0.5;entryDx=0;entryDy=0;exitX=1;exitY=0.3333333333333333;exitDx=0;exitDy=0;exitPerimeter=0;strokeColor=#FF0000;" parent="1" source="2Ioa0xMzXCw3uDVHmsE9-38" target="qIeu8jZyU2JCkB1Wr_dZ-65" edge="1">
          <mxGeometry width="50" height="50" relative="1" as="geometry">
            <mxPoint x="100" y="90" as="sourcePoint" />
            <mxPoint x="197" y="145" as="targetPoint" />
          </mxGeometry>
        </mxCell>
        <mxCell id="qIeu8jZyU2JCkB1Wr_dZ-67" value="&lt;font color=&quot;#ff0000&quot; style=&quot;font-size: 16px;&quot;&gt;X&lt;/font&gt;" style="edgeLabel;html=1;align=center;verticalAlign=middle;resizable=0;points=[];" parent="qIeu8jZyU2JCkB1Wr_dZ-66" vertex="1" connectable="0">
          <mxGeometry x="-0.0123" y="-2" relative="1" as="geometry">
            <mxPoint as="offset" />
          </mxGeometry>
        </mxCell>
      </root>
    </mxGraphModel>
  </diagram>
</mxfile>
